<svg width="30" height="30" viewBox="0 0 30 30" fill="none" xmlns="http://www.w3.org/2000/svg">
<path d="M21.7969 7.96875H18.0469V5.85938C18.0469 5.60156 17.8359 5.39062 17.5781 5.39062H1.875C1.61719 5.39062 1.40625 5.60156 1.40625 5.85938V21.5625C1.40625 21.8203 1.61719 22.0312 1.875 22.0312H4.25391C4.47656 23.4258 5.68945 24.4922 7.14844 24.4922C8.60742 24.4922 9.81445 23.4258 10.043 22.0312H17.5781H19.957C20.1797 23.4258 21.3926 24.4922 22.8516 24.4922C24.3105 24.4922 25.5176 23.4258 25.7461 22.0312H28.125C28.3828 22.0312 28.5938 21.8203 28.5938 21.5625V14.7656C28.5938 11.0156 25.5469 7.96875 21.7969 7.96875ZM27.6445 14.3555H23.0801C22.1074 14.3555 21.3105 13.5645 21.3105 12.5859V8.90625H21.7969C24.8906 8.90625 27.4277 11.3145 27.6445 14.3555ZM17.1094 6.32812V16.8164H2.34375V6.32812H17.1094ZM4.25391 21.0938H2.34375V17.7539H17.1094V21.0938H10.043C9.82031 19.6992 8.60742 18.6328 7.14844 18.6328C5.68945 18.6328 4.48242 19.6992 4.25391 21.0938ZM7.14844 23.5547C6.05273 23.5547 5.15625 22.6582 5.15625 21.5625C5.15625 20.4668 6.05273 19.5703 7.14844 19.5703C8.24414 19.5703 9.14062 20.4668 9.14062 21.5625C9.14062 22.6582 8.24414 23.5547 7.14844 23.5547ZM22.8516 23.5547C21.7559 23.5547 20.8594 22.6582 20.8594 21.5625C20.8594 20.4668 21.7559 19.5703 22.8516 19.5703C23.9473 19.5703 24.8438 20.4668 24.8438 21.5625C24.8438 22.6582 23.9473 23.5547 22.8516 23.5547ZM25.7461 21.0938C25.5234 19.6992 24.3105 18.6328 22.8516 18.6328C21.3926 18.6328 20.1855 19.6992 19.957 21.0938H18.0469V8.90625H20.373V12.5859C20.373 14.0801 21.5859 15.293 23.0801 15.293H27.6562V21.0938H25.7461Z" fill="#141416"/>
</svg>
