<svg width="30" height="30" viewBox="0 0 30 30" fill="none" xmlns="http://www.w3.org/2000/svg">
<path d="M24.2578 15C24.2578 9.89648 20.1035 5.74219 15 5.74219C9.89648 5.74219 5.74219 9.89648 5.74219 15C5.74219 20.1035 9.89648 24.2578 15 24.2578C20.1035 24.2578 24.2578 20.1035 24.2578 15ZM6.67969 15C6.67969 10.4121 10.4121 6.67969 15 6.67969C19.5879 6.67969 23.3203 10.4121 23.3203 15C23.3203 19.5879 19.5879 23.3203 15 23.3203C10.4121 23.3203 6.67969 19.5879 6.67969 15Z" fill="#141416"/>
<path d="M27.0117 11.6016H26.0918C24.6387 6.85547 20.2148 3.39844 15 3.39844C9.78516 3.39844 5.36133 6.85547 3.9082 11.6016H2.98828C2.11523 11.6016 1.40625 12.3105 1.40625 13.1836V16.8164C1.40625 17.6895 2.11523 18.3984 2.98828 18.3984H4.25977C4.40625 18.3984 4.54102 18.3281 4.63477 18.2168C4.72852 18.1055 4.75195 17.9473 4.7168 17.8066C4.45898 16.8926 4.33594 15.9492 4.33594 15C4.33594 9.11719 9.11719 4.33594 15 4.33594C20.8828 4.33594 25.6641 9.11719 25.6641 15C25.6641 20.6133 21.3047 25.2305 15.791 25.6348C15.627 25.3711 15.334 25.1953 15 25.1953C14.4844 25.1953 14.0625 25.6172 14.0625 26.1328C14.0625 26.6484 14.4844 27.0703 15 27.0703C15.3574 27.0703 15.668 26.8652 15.8262 26.5723C20.6777 26.2266 24.7148 22.8926 26.0918 18.3984H27.0117C27.8848 18.3984 28.5938 17.6895 28.5938 16.8164V13.1836C28.5938 12.3105 27.8848 11.6016 27.0117 11.6016ZM2.98828 17.4609C2.63086 17.4609 2.34375 17.1738 2.34375 16.8164V13.1836C2.34375 12.8262 2.63086 12.5391 2.98828 12.5391H3.66211C3.49219 13.3301 3.39844 14.1562 3.39844 15C3.39844 15.832 3.48633 16.6523 3.66211 17.4609H2.98828ZM27.6562 16.8164C27.6562 17.1738 27.3691 17.4609 27.0117 17.4609H26.3379C26.5078 16.6699 26.6016 15.8438 26.6016 15C26.6016 14.1562 26.5078 13.3301 26.3379 12.5391H27.0117C27.3691 12.5391 27.6562 12.8262 27.6562 13.1836V16.8164Z" fill="#141416"/>
</svg>
