<svg width="30" height="30" viewBox="0 0 30 30" fill="none" xmlns="http://www.w3.org/2000/svg">
<path d="M29.5 14.7458H29V9.25019C29 8.14739 28.1031 7.25021 27.0001 7.25021H25.9499L24.522 4.05146C24.4092 3.79997 24.1133 3.68548 23.8618 3.79874L19.7491 5.63402L18.0313 2.03478C17.9126 1.78622 17.6157 1.67982 17.3653 1.7987L5.90777 7.25015H1.99998C0.896953 7.25021 0 8.14745 0 9.25025V26.2502C0 27.353 0.896953 28.2502 1.99998 28.2502H27C28.103 28.2502 29 27.353 29 26.2502V20.7458H29.5C29.7763 20.7458 29.9999 20.5219 29.9999 20.2458V15.2459C30 14.9697 29.7763 14.7458 29.5 14.7458ZM23.8125 4.91577L24.8547 7.25027H20.5204L20.1799 6.53671L23.8125 4.91577ZM17.3438 2.91626L19.0464 6.48333C19.0479 6.48685 19.0472 6.49066 19.0488 6.49411C19.0508 6.49863 19.0549 6.50126 19.0571 6.50566L19.4125 7.25021H8.23494L17.3438 2.91626ZM28 26.2502C28 26.8018 27.5513 27.2502 27 27.2502H1.99998C1.44873 27.2502 0.999961 26.8018 0.999961 26.2502V9.25025C0.999961 8.6987 1.44867 8.25023 1.99998 8.25023H25.6243C25.6249 8.25023 25.6254 8.25046 25.626 8.25046C25.6263 8.25046 25.6267 8.25023 25.6271 8.25023H27C27.5512 8.25023 28 8.6987 28 9.25025V14.7459H23C21.897 14.7459 21.0001 15.6431 21.0001 16.7459V18.7458C21.0001 19.8486 21.897 20.7458 23 20.7458H28V26.2502ZM29 19.7459H28.5024C28.5015 19.7459 28.5008 19.7454 28.5 19.7454C28.4992 19.7454 28.4984 19.7459 28.4976 19.7459H23C22.4487 19.7459 22 19.2974 22 18.7458V16.7459C22 16.1944 22.4487 15.7458 23 15.7458H29V19.7459Z" fill="#141416"/>
</svg>
