<svg width="30" height="30" viewBox="0 0 30 30" fill="none" xmlns="http://www.w3.org/2000/svg">
<g clip-path="url(#clip0_14_59)">
<path d="M10.3125 18.2813C10.5906 18.2814 10.8625 18.1989 11.0938 18.0444C11.3251 17.8899 11.5053 17.6703 11.6118 17.4134C11.7183 17.1565 11.7462 16.8737 11.6919 16.6009C11.6377 16.3281 11.5038 16.0776 11.3072 15.8809C11.0392 15.6254 10.6832 15.4829 10.313 15.4829C9.94274 15.4829 9.58672 15.6254 9.31874 15.8809C9.12217 16.0775 8.98829 16.328 8.93404 16.6007C8.87979 16.8734 8.9076 17.1561 9.01395 17.413C9.1203 17.6699 9.30043 17.8895 9.53156 18.044C9.76269 18.1986 10.0344 18.2812 10.3125 18.2813ZM9.98109 16.5437C10.069 16.4558 10.1882 16.4064 10.3125 16.4064C10.4368 16.4064 10.556 16.4558 10.6439 16.5437C10.7318 16.6316 10.7811 16.7508 10.7811 16.8751C10.7811 16.9994 10.7318 17.1186 10.6439 17.2065C10.5547 17.2918 10.436 17.3394 10.3125 17.3394C10.189 17.3394 10.0703 17.2918 9.98109 17.2065C9.89321 17.1186 9.84385 16.9994 9.84385 16.8751C9.84385 16.7508 9.89321 16.6316 9.98109 16.5437Z" fill="#141416"/>
<path d="M11.3067 21.5059C11.0387 21.2504 10.6827 21.1079 10.3125 21.1079C9.94226 21.1079 9.58624 21.2504 9.31826 21.5059C9.12162 21.7025 8.98771 21.9531 8.93347 22.2259C8.87923 22.4987 8.90709 22.7814 9.01353 23.0383C9.11997 23.2953 9.30022 23.5149 9.53147 23.6694C9.76272 23.8239 10.0346 23.9064 10.3127 23.9064C10.5908 23.9064 10.8627 23.8239 11.094 23.6694C11.3252 23.5149 11.5055 23.2953 11.6119 23.0383C11.7183 22.7814 11.7462 22.4987 11.692 22.2259C11.6377 21.9531 11.5033 21.7025 11.3067 21.5059ZM10.6439 22.8315C10.5547 22.9168 10.4359 22.9644 10.3125 22.9644C10.189 22.9644 10.0703 22.9168 9.98107 22.8315C9.9363 22.7882 9.90059 22.7365 9.87603 22.6793C9.85146 22.6221 9.83853 22.5606 9.83799 22.4984C9.83745 22.4361 9.84931 22.3744 9.87288 22.3168C9.89644 22.2592 9.93125 22.2069 9.97526 22.1629C10.0193 22.1188 10.0716 22.084 10.1292 22.0605C10.1868 22.0369 10.2486 22.025 10.3108 22.0256C10.373 22.0261 10.4345 22.0391 10.4917 22.0636C10.5489 22.0882 10.6006 22.1239 10.6439 22.1687C10.7318 22.2566 10.7811 22.3758 10.7811 22.5001C10.7811 22.6244 10.7318 22.7436 10.6439 22.8315Z" fill="#141416"/>
<path d="M14.0625 19.2188H6.5625C6.43818 19.2188 6.31895 19.2681 6.23104 19.356C6.14314 19.444 6.09375 19.5632 6.09375 19.6875C6.09375 19.8118 6.14314 19.931 6.23104 20.019C6.31895 20.1069 6.43818 20.1562 6.5625 20.1562H14.0625C14.1868 20.1562 14.306 20.1069 14.394 20.019C14.4819 19.931 14.5312 19.8118 14.5312 19.6875C14.5312 19.5632 14.4819 19.444 14.394 19.356C14.306 19.2681 14.1868 19.2188 14.0625 19.2188Z" fill="#141416"/>
<path d="M29.5312 5.625C29.4069 5.625 29.2877 5.67439 29.1998 5.76229C29.1119 5.8502 29.0625 5.96943 29.0625 6.09375V15.0356L15.7233 28.3795C15.6785 28.4228 15.6428 28.4745 15.6182 28.5317C15.5937 28.5889 15.5807 28.6504 15.5802 28.7126C15.5796 28.7749 15.5915 28.8366 15.6151 28.8942C15.6386 28.9518 15.6735 29.0041 15.7175 29.0482C15.7615 29.0922 15.8138 29.127 15.8714 29.1505C15.929 29.1741 15.9908 29.186 16.053 29.1854C16.1152 29.1849 16.1767 29.172 16.2339 29.1474C16.2911 29.1228 16.3428 29.0871 16.3861 29.0423L29.8626 15.5625C29.9063 15.5188 29.941 15.4669 29.9645 15.4098C29.9881 15.3527 30.0002 15.2915 30 15.2297V6.09375C30 5.96943 29.9506 5.8502 29.8627 5.76229C29.7748 5.67439 29.6556 5.625 29.5312 5.625Z" fill="#141416"/>
<path d="M27.1875 14.0626V3.47541L29.8626 0.800256C29.948 0.711848 29.9953 0.593441 29.9942 0.470536C29.9931 0.347632 29.9438 0.230063 29.8569 0.143153C29.77 0.056243 29.6525 0.0069451 29.5296 0.00587709C29.4067 0.00480909 29.2882 0.0520565 29.1998 0.137443L26.5247 2.8126H15.9375C15.8132 2.81263 15.694 2.86203 15.6061 2.94994L0.137335 18.4187C0.0494582 18.5066 9.15527e-05 18.6258 9.15527e-05 18.7501C9.15527e-05 18.8744 0.0494582 18.9936 0.137335 19.0815L10.9186 29.8628C11.0065 29.9506 11.1257 30 11.25 30C11.3743 30 11.4935 29.9506 11.5814 29.8628L27.0501 14.394C27.1381 14.3061 27.1875 14.1869 27.1875 14.0626ZM11.25 28.8685L1.13155 18.7501L16.1316 3.7501H25.5872L22.3842 6.95307C21.8983 6.63146 21.3103 6.50178 20.7342 6.58916C20.1581 6.67655 19.635 6.97478 19.2663 7.42601C18.8976 7.87724 18.7097 8.44931 18.7389 9.03127C18.7681 9.61322 19.0125 10.1636 19.4245 10.5756C19.8365 10.9876 20.3869 11.232 20.9688 11.2612C21.5508 11.2904 22.1229 11.1025 22.5741 10.7338C23.0253 10.3651 23.3235 9.842 23.4109 9.2659C23.4983 8.6898 23.3686 8.10178 23.047 7.61588L26.25 4.41291V13.8685L11.25 28.8685ZM22.5 8.90635C22.5 9.18448 22.4175 9.45636 22.263 9.68762C22.1085 9.91888 21.8888 10.0991 21.6319 10.2056C21.3749 10.312 21.0922 10.3398 20.8194 10.2856C20.5466 10.2313 20.296 10.0974 20.0994 9.90072C19.9027 9.70405 19.7688 9.45348 19.7145 9.18069C19.6603 8.90791 19.6881 8.62516 19.7945 8.3682C19.901 8.11124 20.0812 7.89161 20.3125 7.73709C20.5437 7.58257 20.8156 7.5001 21.0937 7.5001C21.3026 7.50091 21.5085 7.54898 21.6961 7.64072L20.7623 8.57447C20.7176 8.61771 20.6819 8.66944 20.6573 8.72663C20.6327 8.78382 20.6198 8.84533 20.6192 8.90757C20.6187 8.96981 20.6306 9.03153 20.6541 9.08914C20.6777 9.14675 20.7125 9.19908 20.7565 9.2431C20.8005 9.28711 20.8529 9.32191 20.9105 9.34548C20.9681 9.36905 21.0298 9.38091 21.0921 9.38037C21.1543 9.37983 21.2158 9.3669 21.273 9.34233C21.3302 9.31777 21.3819 9.28206 21.4251 9.23729L22.3594 8.30401C22.4511 8.4916 22.4992 8.69753 22.5 8.90635Z" fill="#141416"/>
</g>
<defs>
<clipPath id="clip0_14_59">
<rect width="30" height="30" fill="white"/>
</clipPath>
</defs>
</svg>
