<svg width="25" height="25" viewBox="0 0 25 25" fill="none" xmlns="http://www.w3.org/2000/svg">
<g clip-path="url(#clip0_95_924)">
<path d="M24.1043 10.8359C23.6814 7.75599 22.0523 4.9702 19.5755 3.0914C17.0986 1.21259 13.9768 0.394667 10.8969 0.817563C7.81697 1.24046 5.03118 2.86953 3.15237 5.3464C1.27356 7.82328 0.455641 10.9451 0.878537 14.025C1.2256 16.5739 2.39631 18.9395 4.21233 20.7615C6.02835 22.5834 8.39014 23.7618 10.9379 24.1172C11.4602 24.185 11.9863 24.2189 12.5129 24.2187C14.6376 24.2226 16.7225 23.6429 18.5403 22.543C18.6334 22.4928 18.7155 22.4243 18.7814 22.3415C18.8473 22.2588 18.8957 22.1635 18.9236 22.0614C18.9516 21.9594 18.9585 21.8527 18.944 21.7479C18.9296 21.6431 18.8939 21.5423 18.8393 21.4517C18.7847 21.3611 18.7123 21.2825 18.6264 21.2207C18.5405 21.1589 18.4429 21.1152 18.3397 21.0923C18.2364 21.0693 18.1295 21.0676 18.0255 21.0872C17.9216 21.1068 17.8226 21.1473 17.7348 21.2062C15.6754 22.4442 13.2439 22.9123 10.8721 22.5275C8.50025 22.1427 6.3415 20.9299 4.77911 19.1044C3.21672 17.2788 2.35179 14.9587 2.33786 12.5559C2.32394 10.153 3.16193 7.82304 4.70305 5.9795C6.24418 4.13597 8.38872 2.89819 10.7559 2.48593C13.1232 2.07367 15.5599 2.51359 17.6335 3.72761C19.7071 4.94162 21.2834 6.85116 22.0826 9.11721C22.8818 11.3833 22.8521 13.8592 21.9988 16.1055C21.8595 16.4723 21.5961 16.7788 21.2543 16.9716C20.9125 17.1645 20.5139 17.2315 20.1278 17.161C19.7418 17.0905 19.3926 16.887 19.1409 16.5859C18.8893 16.2847 18.7511 15.9049 18.7504 15.5125V7.03124C18.7504 6.82403 18.6681 6.62532 18.5216 6.47881C18.3751 6.33229 18.1764 6.24998 17.9692 6.24998C17.762 6.24998 17.5632 6.33229 17.4167 6.47881C17.2702 6.62532 17.1879 6.82403 17.1879 7.03124V8.37967C16.3425 7.41759 15.2219 6.73847 13.9777 6.43423C12.7336 6.12998 11.4261 6.21531 10.232 6.67865C9.038 7.142 8.01515 7.96099 7.3019 9.02479C6.58865 10.0886 6.21945 11.3458 6.24425 12.6264C6.26906 13.9069 6.68667 15.1489 7.44058 16.1843C8.19449 17.2197 9.2483 17.9984 10.4594 18.4152C11.6705 18.832 12.9803 18.8666 14.2117 18.5144C15.4431 18.1622 16.5366 17.4402 17.3442 16.4461C17.538 17.0934 17.9299 17.6637 18.4648 18.0767C18.9997 18.4896 19.6506 18.7244 20.3259 18.7481C21.0013 18.7717 21.667 18.583 22.2295 18.2084C22.7919 17.8339 23.2228 17.2924 23.4613 16.6601C24.1588 14.8029 24.3799 12.8006 24.1043 10.8359ZM12.5004 17.1875C11.5733 17.1875 10.667 16.9126 9.89618 16.3975C9.12532 15.8824 8.52451 15.1503 8.16973 14.2938C7.81494 13.4373 7.72211 12.4948 7.90298 11.5855C8.08385 10.6762 8.53029 9.84098 9.18585 9.18542C9.84141 8.52986 10.6766 8.08342 11.5859 7.90255C12.4952 7.72169 13.4377 7.81451 14.2942 8.1693C15.1508 8.52409 15.8829 9.12489 16.3979 9.89575C16.913 10.6666 17.1879 11.5729 17.1879 12.5C17.1867 13.7428 16.6924 14.9344 15.8136 15.8132C14.9348 16.692 13.7432 17.1862 12.5004 17.1875Z" fill="#141416"/>
</g>
<defs>
<clipPath id="clip0_95_924">
<rect width="25" height="25" fill="white"/>
</clipPath>
</defs>
</svg>
