<svg width="28" height="25" viewBox="0 0 28 25" fill="none" xmlns="http://www.w3.org/2000/svg">
<path d="M23.5078 12.5C23.5078 7.39648 19.3535 3.24219 14.25 3.24219C9.14648 3.24219 4.99219 7.39648 4.99219 12.5C4.99219 17.6035 9.14648 21.7578 14.25 21.7578C19.3535 21.7578 23.5078 17.6035 23.5078 12.5ZM5.92969 12.5C5.92969 7.91211 9.66211 4.17969 14.25 4.17969C18.8379 4.17969 22.5703 7.91211 22.5703 12.5C22.5703 17.0879 18.8379 20.8203 14.25 20.8203C9.66211 20.8203 5.92969 17.0879 5.92969 12.5Z" fill="#141416"/>
<path d="M26.2617 9.10156H25.3418C23.8887 4.35547 19.4648 0.898438 14.25 0.898438C9.03516 0.898438 4.61133 4.35547 3.1582 9.10156H2.23828C1.36523 9.10156 0.65625 9.81055 0.65625 10.6836V14.3164C0.65625 15.1895 1.36523 15.8984 2.23828 15.8984H3.50977C3.65625 15.8984 3.79102 15.8281 3.88477 15.7168C3.97852 15.6055 4.00195 15.4473 3.9668 15.3066C3.70898 14.3926 3.58594 13.4492 3.58594 12.5C3.58594 6.61719 8.36719 1.83594 14.25 1.83594C20.1328 1.83594 24.9141 6.61719 24.9141 12.5C24.9141 18.1133 20.5547 22.7305 15.041 23.1348C14.877 22.8711 14.584 22.6953 14.25 22.6953C13.7344 22.6953 13.3125 23.1172 13.3125 23.6328C13.3125 24.1484 13.7344 24.5703 14.25 24.5703C14.6074 24.5703 14.918 24.3652 15.0762 24.0723C19.9277 23.7266 23.9648 20.3926 25.3418 15.8984H26.2617C27.1348 15.8984 27.8438 15.1895 27.8438 14.3164V10.6836C27.8438 9.81055 27.1348 9.10156 26.2617 9.10156ZM2.23828 14.9609C1.88086 14.9609 1.59375 14.6738 1.59375 14.3164V10.6836C1.59375 10.3262 1.88086 10.0391 2.23828 10.0391H2.91211C2.74219 10.8301 2.64844 11.6562 2.64844 12.5C2.64844 13.332 2.73633 14.1523 2.91211 14.9609H2.23828ZM26.9062 14.3164C26.9062 14.6738 26.6191 14.9609 26.2617 14.9609H25.5879C25.7578 14.1699 25.8516 13.3438 25.8516 12.5C25.8516 11.6562 25.7578 10.8301 25.5879 10.0391H26.2617C26.6191 10.0391 26.9062 10.3262 26.9062 10.6836V14.3164Z" fill="#141416"/>
</svg>
