<svg width="25" height="25" viewBox="0 0 25 25" fill="none" xmlns="http://www.w3.org/2000/svg">
<path d="M14.3047 15.7424C14.0725 15.7424 13.877 15.5634 13.86 15.3281C13.8422 15.0821 14.027 14.8687 14.273 14.8509C16.9868 14.6535 19.6279 14.0098 22.1265 12.937V7.76067C22.1265 7.51469 21.9265 7.31424 21.6801 7.31424H3.32073C3.07475 7.31424 2.8743 7.51469 2.8743 7.76067V12.937C4.95377 13.8294 7.1435 14.4272 9.3877 14.7156C9.63234 14.7468 9.80511 14.9709 9.77341 15.2151C9.74216 15.4602 9.52029 15.6276 9.27386 15.6013C6.84796 15.2897 4.48412 14.6285 2.24707 13.6375C2.08591 13.566 1.98145 13.4058 1.98145 13.2294V7.76067C1.98145 7.02228 2.58234 6.42139 3.32073 6.42139H21.6801C22.4185 6.42139 23.0194 7.02228 23.0194 7.76067V13.2294C23.0194 13.4062 22.9154 13.566 22.7538 13.6375C20.0828 14.8214 17.2511 15.5294 14.3372 15.741C14.3265 15.7419 14.3154 15.7424 14.3047 15.7424Z" fill="#141416"/>
<path d="M20.3196 20.7312H4.68122C3.6964 20.7312 2.89551 19.9303 2.89551 18.9455V13.8745C2.89551 13.6277 3.09551 13.4281 3.34194 13.4281C3.58837 13.4281 3.78836 13.6277 3.78836 13.8745V18.9455C3.78836 19.4379 4.18881 19.8384 4.68122 19.8384H20.3192C20.8116 19.8384 21.212 19.4379 21.212 18.9455V15.4285C21.212 15.1817 21.4116 14.9821 21.6585 14.9821C21.9053 14.9821 22.1049 15.1817 22.1049 15.4285V18.9455C22.1053 19.9308 21.3044 20.7312 20.3196 20.7312Z" fill="#141416"/>
<path d="M9.46987 7.03124C9.22344 7.03124 9.02344 6.83124 9.02344 6.58481V5.16159C9.02344 4.66918 9.42388 4.26874 9.91629 4.26874H15.0842C15.5766 4.26874 15.977 4.66918 15.977 5.16159V5.4799C15.977 5.72633 15.7775 5.92633 15.5306 5.92633C15.2837 5.92633 15.0842 5.72633 15.0842 5.4799V5.16159H9.91629V6.58481C9.91629 6.83124 9.71674 7.03124 9.46987 7.03124Z" fill="#141416"/>
<path d="M13.6414 17.0183H11.3597C10.8672 17.0183 10.4668 16.6179 10.4668 16.1254V14.5973C10.4668 14.1049 10.8672 13.7045 11.3597 13.7045H13.6414C14.1338 13.7045 14.5342 14.1049 14.5342 14.5973V16.1254C14.5342 16.6179 14.1333 17.0183 13.6414 17.0183ZM11.3592 14.5973V16.1254H13.6418L13.6409 14.5973H11.3592Z" fill="#141416"/>
</svg>
